<svg width="1000" height="1000" viewBox="0 0 1000 1000" fill="none" xmlns="http://www.w3.org/2000/svg">
<rect width="1000" height="1000" rx="250" fill="url(#paint0_linear_58_44)"/>
<g filter="url(#filter0_d_58_44)">
<path d="M634.655 359.599L524.867 526.832L608.458 509.016C610.108 511.743 611.758 514.47 613.407 517.197L352.467 836H343L450.313 628.937L371.455 645.73C368.927 642.016 368.712 641.747 366.184 638.033L472.582 473.761L392.649 490.769C390.121 486.732 390.175 486.732 387.647 482.642L648.425 164H658L552.139 368.372L629.383 351.902C631.965 355.616 632.127 355.885 634.655 359.599Z" fill="white" fill-opacity="0.9" shape-rendering="crispEdges"/>
</g>
<defs>
<filter id="filter0_d_58_44" x="223" y="56" width="555" height="912" filterUnits="userSpaceOnUse" color-interpolation-filters="sRGB">
<feFlood flood-opacity="0" result="BackgroundImageFix"/>
<feColorMatrix in="SourceAlpha" type="matrix" values="0 0 0 0 0 0 0 0 0 0 0 0 0 0 0 0 0 0 127 0" result="hardAlpha"/>
<feOffset dy="12"/>
<feGaussianBlur stdDeviation="60"/>
<feComposite in2="hardAlpha" operator="out"/>
<feColorMatrix type="matrix" values="0 0 0 0 0 0 0 0 0 0 0 0 0 0 0 0 0 0 0.15 0"/>
<feBlend mode="normal" in2="BackgroundImageFix" result="effect1_dropShadow_58_44"/>
<feBlend mode="normal" in="SourceGraphic" in2="effect1_dropShadow_58_44" result="shape"/>
</filter>
<linearGradient id="paint0_linear_58_44" x1="500" y1="0" x2="500" y2="1000" gradientUnits="userSpaceOnUse">
<stop stop-color="#353338"/>
<stop offset="1" stop-color="#252228"/>
</linearGradient>
</defs>
</svg>
