<svg width="1000" height="1000" viewBox="0 0 1000 1000" fill="none" xmlns="http://www.w3.org/2000/svg">
<g clip-path="url(#clip0_2077_1377)">
<g clip-path="url(#clip1_2077_1377)">
<rect width="1000" height="1000" rx="250" fill="url(#paint0_linear_2077_1377)"/>
<path d="M218.75 768.151H335.681V728.451V510.64C335.681 510.64 335.681 510.64 335.681 510.61V489.425C335.681 489.425 335.681 489.396 335.681 489.366V489.132C338.116 451.778 353.11 416.567 378.814 388.604C408.597 356.209 449.207 337.342 493.133 335.464C583.538 331.649 660.241 401.778 664.671 492.007L664.525 651.191L664.378 768.151H781.015V758.233L781.103 641.244L781.162 590.628L781.25 490.746V488.222C779.607 450.311 770.628 413.809 754.489 379.713C738.908 346.849 717.37 317.653 690.492 292.946C663.615 268.24 632.688 249.226 598.621 236.491C563.292 223.287 526.174 217.418 488.263 219.003C450.323 220.587 413.82 229.595 379.753 245.734C346.86 261.315 317.664 282.852 292.957 309.73C268.251 336.608 249.266 367.506 236.502 401.602C225.968 429.771 220.1 459.143 218.955 489.132L218.75 768.151Z" fill="white"/>
<path d="M558.685 647.838H441.314V768.143H558.685V647.838Z" fill="url(#paint1_linear_2077_1377)"/>
</g>
</g>
<defs>
<linearGradient id="paint0_linear_2077_1377" x1="500" y1="0" x2="500" y2="1000" gradientUnits="userSpaceOnUse">
<stop stop-color="#353338"/>
<stop offset="1" stop-color="#252228"/>
</linearGradient>
<linearGradient id="paint1_linear_2077_1377" x1="441.314" y1="647.838" x2="561.583" y2="765.173" gradientUnits="userSpaceOnUse">
<stop stop-color="#A145E9"/>
<stop offset="1" stop-color="#413ED5"/>
</linearGradient>
<clipPath id="clip0_2077_1377">
<rect width="1000" height="1000" fill="white"/>
</clipPath>
<clipPath id="clip1_2077_1377">
<rect width="1000" height="1000" fill="white"/>
</clipPath>
</defs>
</svg>
